<svg xmlns="http://www.w3.org/2000/svg" width="135" height="27.197" viewBox="0 0 135 27.197">
  <g id="Grupo_8955" data-name="Grupo 8955" transform="translate(-8996.893 373.838)">
    <g id="Grupo_7237" data-name="Grupo 7237" transform="translate(8996.893 -371.893)">
      <path id="Trazado_2295" data-name="Trazado 2295" d="M116.552,112.35l-1.72.651-.165.464-.385.251a13.388,13.388,0,0,0-.21-1.993l.621-.008,1.144-1.395-1.664.713-.15.486-1.633,1.237a12.49,12.49,0,0,1,.067,2.143l.361-.243c.156,6.8-2.955,9.353-2.955,9.353a2.814,2.814,0,0,1-.989-.629c2.838-3.157,2.707-7.722,2.7-7.885l-.3.2a15.2,15.2,0,0,0,.042-2.127l-.523.4c-.012-.466-.039-.855-.071-1.125a1.377,1.377,0,0,0,.91-.219,1.963,1.963,0,0,0,.479-1.067c.047-.258-.008-.345-.165-.447a5.577,5.577,0,0,1-.621-.534s.27-.116.9.18c.683.323,1.2.165,1.784-.7l-.7.1.062-.482a.342.342,0,0,1,.036.019,2.385,2.385,0,0,0,.584.219c.157.031.153.009.252.068s.183.082.236.058c0,0,.39.219.547,0a2.023,2.023,0,0,0,.227.118,1.241,1.241,0,0,0,.369.1.6.6,0,0,1,.236.063c.246.124.4.059.432,0s-.153-.254-.3-.376a.656.656,0,0,0-.271-.145c.048-.032.036-.079-.059-.193a1.715,1.715,0,0,0-.4-.267c0-.091-.351-.31-.561-.47s-.126-.153-.35-.383a21.837,21.837,0,0,0-1.76-1.409,13.019,13.019,0,0,0-3.111-1.816,2.775,2.775,0,0,0-2.411.016.731.731,0,0,0-.29.993,6.764,6.764,0,0,0,.365.784c.1.2.019.2-.028.229s0,.109-.042.1-.076.051-.135.118a.487.487,0,0,1-.229.086.2.2,0,0,1,.037-.165.677.677,0,0,0-.215-.061c.016-.033.079-.056.079-.056a.8.8,0,0,0-.251.007c.027-.043.05-.049.05-.049a.353.353,0,0,0-.349.134,1.2,1.2,0,0,0-.243-.29c-.094-.087-.141-.212-.242-.311a.274.274,0,0,0,.023-.248.54.54,0,0,0-.312-.246.138.138,0,0,0,.071-.136c-.011-.094-.1-.129-.194-.1a.683.683,0,0,0-.277.094.724.724,0,0,1-.138,0,.692.692,0,0,0-.327-.883,2.773,2.773,0,0,0-2.411-.016,13.014,13.014,0,0,0-3.109,1.816,21.551,21.551,0,0,0-1.759,1.409c-.225.231-.139.222-.35.383s-.566.38-.562.47a1.731,1.731,0,0,0-.4.267c-.094.114-.106.161-.06.193a.66.66,0,0,0-.27.145c-.146.122-.334.317-.3.376s.184.124.432,0a.6.6,0,0,1,.235-.063,1.233,1.233,0,0,0,.37-.1,2.021,2.021,0,0,0,.228-.118c.157.219.546,0,.546,0a.287.287,0,0,0,.235-.058c.1-.059.095-.036.251-.068a2.328,2.328,0,0,0,.586-.219.162.162,0,0,1,.04-.021l.063.483-.7-.1c.581.863,1.1,1.02,1.783.7.634-.3.9-.18.9-.18a5.575,5.575,0,0,1-.621.534c-.157.1-.212.189-.165.447a1.95,1.95,0,0,0,.479,1.067,1.377,1.377,0,0,0,.91.219c-.031.27-.058.658-.072,1.125l-.528-.4a15.305,15.305,0,0,0,.042,2.13l-.3-.2c-.006.163-.135,4.728,2.7,7.885a2.841,2.841,0,0,1-.99.629s-3.112-2.557-2.953-9.353l.361.243a12.536,12.536,0,0,1,.065-2.147l-1.628-1.234-.15-.486-1.664-.713,1.146,1.395.621.008a13.1,13.1,0,0,0-.212,1.993l-.384-.251L96.666,113l-1.719-.651,1.217,1.357.605-.038s-.619,6.016,1.426,9.254c1.7,2.693,4.182,2.715,6.438,1.2a14.7,14.7,0,0,1-1.115,2.473,6.162,6.162,0,0,1,.911.08s-.093.391-.143.51-.04.32.192.33.535.036.535.036-.041.283-.048.433c-.007.2-.027.287.782.321.847-.034.792-.119.784-.321-.006-.15-.045-.433-.045-.433s.3-.029.535-.036.24-.209.191-.33-.145-.51-.145-.51a6.18,6.18,0,0,1,.912-.08,15.1,15.1,0,0,1-1.117-2.473c2.258,1.513,4.738,1.494,6.442-1.2,2.045-3.237,1.425-9.254,1.425-9.254l.605.038Zm-9.844-2.329c.067-.3.122-.558.185-.514a.176.176,0,0,0,.212,0c.04-.052.052-.059.083-.005s.219.145.346-.07.09-.106.125-.023.134.117.244.031a1.9,1.9,0,0,1,.275-.2c.077-.038.081-.019.125-.1s.114-.115.118-.165-.047-.11.028-.149.11-.067.177-.035.085-.031.121.012a.075.075,0,0,0,.126,0c.043-.047.075-.121.126-.035s.164.105.188.062.044-.047.075.02a.259.259,0,0,0,.267.1s.114.157.252.133.192-.094.2-.187-.047-.412.047-.342.091.039.118-.016.071,0,.119-.008.039-.07.117.008.086.118.161.138a.328.328,0,0,1,.185.122c.079.082.165.172.306.121,0,0,.09.118.185.109,0,0,.192.209.3.177a.939.939,0,0,0,.251.07c.063-.008.075-.05.115-.028s.023-.074.082-.008.165.185.232.166a.71.71,0,0,0,.279.147c.123.017.158.053.2.053s.02-.039.091.016a.269.269,0,0,0,.24.055.231.231,0,0,1,.154-.016.385.385,0,0,0,.073,0,.783.783,0,0,1-.934.273c-.635-.2-.826-.1-.957.031a2.631,2.631,0,0,0-.5.761c-.077.243-.038.431.432.981a4.252,4.252,0,0,1-1.421-.221,3.1,3.1,0,0,0-2.309-.015c-.131.059-.252.113-.365.169-.084-.085-.293-.3-.37-.4a2.365,2.365,0,0,0,.047-.4.524.524,0,0,0-.071-.325A.523.523,0,0,1,106.709,110.021Zm3.236,2.656a3.428,3.428,0,0,1-1.861.489,3.81,3.81,0,0,1-1.624-.34,3.293,3.293,0,0,1,1.554-.468,4.127,4.127,0,0,1,1.729.251Zm-3.721-1.282.015.005a.719.719,0,0,0,.325.039,4.721,4.721,0,0,1,.356.321,3.529,3.529,0,0,0-.626.42,2.416,2.416,0,0,1-.1-.619C106.207,111.5,106.217,111.446,106.223,111.4Zm-1.119-4.289a.8.8,0,0,1,.319.3c.016.044.03.086.041.126a.741.741,0,0,0-.295-.021,1.374,1.374,0,0,0-.4-.429A.509.509,0,0,1,105.1,107.107Zm-.756-.059a.107.107,0,0,0,.006-.014,1.2,1.2,0,0,0,.714.515.323.323,0,0,0-.089.064.94.94,0,0,1-.428-.118c-.059-.067-.086-.126-.134-.118s0-.071-.043-.1S104.248,107.248,104.348,107.048Zm-.155,2.515a1.2,1.2,0,0,0,.1.338c-.015.026-.029.053-.042.081a1.049,1.049,0,0,0-.15-.428A.212.212,0,0,0,104.193,109.563Zm-3.96,2.137c.471-.55.51-.738.431-.981a2.6,2.6,0,0,0-.5-.761c-.133-.133-.321-.228-.958-.031a.782.782,0,0,1-.934-.272.339.339,0,0,0,.069,0,.234.234,0,0,1,.155.016.268.268,0,0,0,.239-.055c.071-.055.051-.016.09-.016s.075-.036.2-.053a.706.706,0,0,0,.279-.147c.068.019.172-.1.232-.166s.042.032.082.008.051.021.114.028a.953.953,0,0,0,.252-.07c.109.031.3-.177.3-.177.094.008.184-.109.184-.109.141.051.228-.039.307-.121a.322.322,0,0,1,.184-.122c.075-.02.082-.059.16-.138s.07-.018.118-.008.091-.045.118.008.024.087.118.016.043.247.047.342.06.163.2.187.252-.133.252-.133a.258.258,0,0,0,.267-.1c.032-.067.052-.063.075-.02s.138.024.19-.062.081-.013.125.035a.075.075,0,0,0,.125,0c.035-.043.056.02.122-.012s.1,0,.176.035.024.1.028.149.076.086.118.165.049.059.126.1a1.926,1.926,0,0,1,.275.2.149.149,0,0,0,.233-.039c.016.07.04.184.073.184h0c.034,0,.063-.089.087-.144.035.048.074.036.112.051a1.115,1.115,0,0,0,.042,1.08h0c.016,0,.029-.02.041-.053a1.456,1.456,0,0,1,.016.393,1.824,1.824,0,0,0-.259.531,3.113,3.113,0,0,0-2.28.034A4.371,4.371,0,0,1,100.233,111.7Zm3.443.67a2.91,2.91,0,0,1-.384.794,3.378,3.378,0,0,1-1.738-.487l.2-.068a4.128,4.128,0,0,1,1.728-.251C103.55,112.36,103.613,112.366,103.676,112.37Zm-2.675.417c.072-.013.144-.016.227-.036a2.9,2.9,0,0,0,2.114.752,3.643,3.643,0,0,0,2.4-.764,3.63,3.63,0,0,0,2.4.767,2.907,2.907,0,0,0,2.114-.745c.085.02.155.014.228.027a18.432,18.432,0,0,1-.128,3.865h-9.237A18.491,18.491,0,0,1,101,112.787Zm.127,4.141h9.237a9.943,9.943,0,0,1-.895,3.245h-7.447A9.921,9.921,0,0,1,101.128,116.928Zm4.619,7.554a10.465,10.465,0,0,1-3.583-4.049h7.163A10.437,10.437,0,0,1,105.747,124.483Z" transform="translate(-94.947 -105)" fill="#fff"/>
      <path id="Trazado_2296" data-name="Trazado 2296" d="M186.01,176.086a.738.738,0,0,0,.433-.156.569.569,0,0,0,.206.031.677.677,0,0,0,.584-.4.542.542,0,0,0,.331-.055.62.62,0,0,0,.281-.672c.013-.008.023-.018.035-.027a.548.548,0,0,0-.006-.765.1.1,0,0,0-.02-.021.271.271,0,0,0,.117-.217c0-.157-.189-.283-.363-.283s-.362.126-.362.283h0a1.154,1.154,0,0,0-.171.093.411.411,0,0,0-.124.294.484.484,0,0,0-.082.039.427.427,0,0,0-.106.083.512.512,0,0,0-.15-.018.577.577,0,0,0-.215.046.712.712,0,0,0-.425-.129.948.948,0,0,0,.036,1.876Z" transform="translate(-173.48 -164.647)" fill="#fff"/>
      <path id="Trazado_2297" data-name="Trazado 2297" d="M149.745,174.8a.285.285,0,0,0,.036.027.62.62,0,0,0,.28.672.541.541,0,0,0,.332.055.676.676,0,0,0,.583.4.566.566,0,0,0,.205-.031.736.736,0,0,0,.432.156.948.948,0,0,0,.036-1.876.724.724,0,0,0-.426.129.585.585,0,0,0-.216-.045.564.564,0,0,0-.152.016.508.508,0,0,0-.114-.082.455.455,0,0,0-.094-.039.393.393,0,0,0-.114-.294,1.058,1.058,0,0,0-.185-.093h0a.332.332,0,0,0-.347-.283.315.315,0,0,0-.331.283.263.263,0,0,0,.107.217c-.006.006-.015.013-.023.021A.546.546,0,0,0,149.745,174.8Z" transform="translate(-142.508 -164.647)" fill="#fff"/>
      <path id="Trazado_2298" data-name="Trazado 2298" d="M173.006,201.718l.383-.581-.073-.275.3.041c.021.126.1.27.222.288a1.493,1.493,0,0,0,.323,0l.114-.133a2.5,2.5,0,0,0-.316-.248,5.886,5.886,0,0,0-.284-1.635c-.1-.289-.234-.3-.49-.263a4.505,4.505,0,0,0-.948.452l-.048.4.236.026s-.135.451-.182.613-.006.155.08.217a2.189,2.189,0,0,0,.418.139l-.094.418Z" transform="translate(-162.176 -186.741)" fill="#fff"/>
      <path id="Trazado_2299" data-name="Trazado 2299" d="M171.516,170.256c.138.8.65.868.852.863a2.757,2.757,0,0,1-.052.5l.252.173a4.5,4.5,0,0,0,0-.81c.606-.088.729-.988.729-.988a1.147,1.147,0,0,0-.74.886,1.623,1.623,0,0,0-.159-.569.765.765,0,0,0,.68-.761.757.757,0,0,0-.245-.559l.126-.236-.267.053-.11-.2-.2.158-.118-.158-.125.182-.236-.133.066.214a.765.765,0,0,0,.212,1.44,1.369,1.369,0,0,1,.179.648A1.762,1.762,0,0,0,171.516,170.256Zm.831.046c-.185,0-.335-.33-.335-.738s.15-.735.335-.735.335.33.335.735S172.531,170.3,172.347,170.3Z" transform="translate(-161.588 -160.371)" fill="#fff"/>
      <path id="Trazado_2300" data-name="Trazado 2300" d="M176.549,228.5a.622.622,0,0,1,0-.493h-.921a.614.614,0,0,0,0,.493Z" transform="translate(-165.122 -212.077)" fill="#fff"/>
      <path id="Trazado_2301" data-name="Trazado 2301" d="M175.628,240.7a1.082,1.082,0,0,0,0,.66h.921a1.1,1.1,0,0,1,0-.66Z" transform="translate(-165.122 -223.128)" fill="#fff"/>
      <path id="Trazado_2302" data-name="Trazado 2302" d="M171.714,232.3l.205-.33h-1.409l-.155-.165h-.588l.073.165h.142l.15.33Z" transform="translate(-160.067 -215.384)" fill="#fff"/>
      <path id="Trazado_2303" data-name="Trazado 2303" d="M174.029,245.954h-1.193l-.085-.165h-.31l.094.188.253.139H174l.245-.142.034-.185h-.2Z" transform="translate(-162.393 -227.558)" fill="#fff"/>
    </g>
    <g id="Grupo_7238" data-name="Grupo 7238" transform="translate(9031.115 -369.948)">
      <g id="Grupo_4376" data-name="Grupo 4376">
        <path id="Trazado_2304" data-name="Trazado 2304" d="M374.871,124.728a7.438,7.438,0,0,0-5.028-1.992c-4.363,0-6.891,3.267-6.864,7.2,0,3.4,2.022,6.694,6.864,6.694a6.66,6.66,0,0,0,4.549-1.647v-3.772H369.2v-2.656h7.955v7.624a9.38,9.38,0,0,1-7.316,3.241c-6.837,0-9.791-4.542-9.791-9.483,0-5.366,3.432-9.934,9.791-9.934a9.8,9.8,0,0,1,6.891,2.816Z" transform="translate(-360.052 -120)" fill="#fff"/>
        <path id="Trazado_2305" data-name="Trazado 2305" d="M529.231,129.762c0,5.041-3.072,9.655-9.564,9.655s-9.564-4.721-9.564-9.629c0-5.681,3.98-9.789,9.617-9.789C526.106,120.027,529.231,124.721,529.231,129.762Zm-9.564,6.908c4.648,0,6.6-3.281,6.6-6.855,0-3.441-1.977-7.015-6.545-7.095-4.328,0-6.652,3.014-6.652,7.095C513.123,133.123,515.046,136.67,519.668,136.67Z" transform="translate(-490.648 -120)" fill="#fff"/>
        <path id="Trazado_2306" data-name="Trazado 2306" d="M672.4,139.816h-3.227l-8.026-19.358h3.475l6.15,15.668,6.178-15.668H680.4Z" transform="translate(-622.108 -120.399)" fill="#fff"/>
        <path id="Trazado_2307" data-name="Trazado 2307" d="M799.024,241.921a1.949,1.949,0,1,1-3.9,0A1.949,1.949,0,0,1,799.024,241.921Z" transform="translate(-738.712 -224.46)" fill="#fff"/>
        <path id="Trazado_2308" data-name="Trazado 2308" d="M857.145,136.636a9.837,9.837,0,0,1-7.045,2.782c-6.8,0-9.858-4.681-9.885-9.6S843.4,120,850.1,120a9.594,9.594,0,0,1,6.858,2.835l-2.009,1.926a6.9,6.9,0,0,0-4.849-1.926,6.568,6.568,0,0,0-6.911,6.954c.027,3.423,2.063,6.82,6.911,6.82a7.274,7.274,0,0,0,4.983-2.033Z" transform="translate(-777.955 -120)" fill="#fff"/>
        <path id="Trazado_2309" data-name="Trazado 2309" d="M1009.277,130.19c0,5.025-3.063,9.626-9.535,9.626s-9.534-4.707-9.534-9.6c0-5.664,3.968-9.759,9.588-9.759C1006.161,120.485,1009.277,125.165,1009.277,130.19Zm-9.535,6.887c4.634,0,6.578-3.271,6.578-6.834,0-3.43-1.971-6.993-6.525-7.073-4.314,0-6.632,3-6.632,7.073C993.218,133.541,995.135,137.077,999.742,137.077Z" transform="translate(-908.499 -120.399)" fill="#fff"/>
      </g>
    </g>
    <g id="Grupo_7236" data-name="Grupo 7236" transform="translate(9023.457 -373.838)">
      <rect id="Rectángulo_1847" data-name="Rectángulo 1847" width="2.093" height="11.669" transform="translate(0)" fill="#fbd015"/>
      <rect id="Rectángulo_1848" data-name="Rectángulo 1848" width="2.093" height="7.779" transform="translate(0 11.65)" fill="#05569e"/>
      <rect id="Rectángulo_1849" data-name="Rectángulo 1849" width="2.093" height="7.78" transform="translate(0 19.417)" fill="#d11f3e"/>
    </g>
  </g>
</svg>
