<svg xmlns="http://www.w3.org/2000/svg" xmlns:xlink="http://www.w3.org/1999/xlink" width="1064" height="210" viewBox="0 0 1064 210">
  <defs>
    <clipPath id="clip-path">
      <rect id="Rectángulo_3308" data-name="Rectángulo 3308" width="1064" height="210" fill="#fff"/>
    </clipPath>
  </defs>
  <g id="Enmascarar_grupo_1" data-name="Enmascarar grupo 1" clip-path="url(#clip-path)">
    <g id="Grupo_11193" data-name="Grupo 11193" transform="translate(-364.252)">
      <g id="Grupo_11184" data-name="Grupo 11184">
        <g id="Componente_173_1" data-name="Componente 173 – 1" style="isolation: isolate">
          <g id="Rectángulo_2992" data-name="Rectángulo 2992" fill="#fff" stroke="#e6effd" stroke-width="1">
            <rect width="335.495" height="100" rx="5" stroke="none"/>
            <rect x="0.5" y="0.5" width="334.495" height="99" rx="4.5" fill="none"/>
          </g>
        </g>
        <g id="Grupo_8327" data-name="Grupo 8327" transform="translate(9.585 34)">
          <rect id="Rectángulo_2984" data-name="Rectángulo 2984" width="28.495" height="16.555" rx="1.027" transform="translate(4.145 11.868)" fill="#69f"/>
          <rect id="Rectángulo_2985" data-name="Rectángulo 2985" width="7.87" height="2.119" transform="translate(4.233 32.39)" fill="#d5e9fa"/>
          <rect id="Rectángulo_2986" data-name="Rectángulo 2986" width="7.87" height="2.119" transform="translate(24.212 32.39)" fill="#d5e9fa"/>
          <path id="Trazado_6275" data-name="Trazado 6275" d="M935.309,363.468V358.92a1.631,1.631,0,0,0-1.733-1.506H917.063a1.632,1.632,0,0,0-1.733,1.506v4.548Z" transform="translate(-906.859 -355.598)" fill="none" stroke="#69f" stroke-miterlimit="10" stroke-width="1"/>
          <rect id="Rectángulo_2987" data-name="Rectángulo 2987" width="36.325" height="24.822" rx="3.834" transform="translate(0 7.483)" fill="none" stroke="#004884" stroke-linecap="round" stroke-miterlimit="10" stroke-width="0.75"/>
          <rect id="Rectángulo_2988" data-name="Rectángulo 2988" width="12.108" height="3.632" transform="translate(12.407)" fill="#ffab00"/>
          <g id="Grupo_8326" data-name="Grupo 8326" transform="translate(13.387 15.14)">
            <rect id="Rectángulo_2989" data-name="Rectángulo 2989" width="2.669" height="10.011" transform="translate(3.671)" fill="#fff"/>
            <rect id="Rectángulo_2990" data-name="Rectángulo 2990" width="2.669" height="10.011" transform="translate(10.011 3.671) rotate(90)" fill="#fff"/>
          </g>
          <path id="Trazado_6276" data-name="Trazado 6276" d="M907.154,390.8a.7.7,0,0,1-.7-.7V373.11a.7.7,0,0,1,.7-.7h29.1a.7.7,0,0,1,.7.7" transform="translate(-903.358 -361.516)" fill="none" stroke="#004884" stroke-linecap="round" stroke-miterlimit="10" stroke-width="0.75"/>
        </g>
        <text id="Encuesta_del_sistema_de_identificación_y_clasificación_-_SISBEN" data-name="Encuesta del sistema de identificación y clasificación - SISBEN" transform="translate(58 33)" fill="#004884" font-size="14" font-family="WorkSans-Medium, Work Sans" font-weight="500" text-decoration="underline"><tspan x="0" y="13">Encuesta del sistema de identificación </tspan><tspan x="0" y="35">y clasificación - SISBEN</tspan></text>
      </g>
      <g id="Grupo_11187" data-name="Grupo 11187" transform="translate(0 110)">
        <g id="Componente_173_4" data-name="Componente 173 – 4" style="isolation: isolate">
          <g id="Rectángulo_2992-2" data-name="Rectángulo 2992" fill="#fff" stroke="#e6effd" stroke-width="1">
            <rect width="335.495" height="100" rx="5" stroke="none"/>
            <rect x="0.5" y="0.5" width="334.495" height="99" rx="4.5" fill="none"/>
          </g>
        </g>
        <text id="Impuesto_predial_unificado" data-name="Impuesto predial unificado" transform="translate(55.596 42)" fill="#004884" font-size="14" font-family="WorkSans-Medium, Work Sans" font-weight="500" text-decoration="underline"><tspan x="0" y="13">Impuesto predial unificado</tspan></text>
        <g id="Grupo_8694" data-name="Grupo 8694" transform="translate(6.71 28)">
          <g id="Grupo_8518" data-name="Grupo 8518" transform="translate(2.565 6.983)">
            <path id="Trazado_6304" data-name="Trazado 6304" d="M499.562,245.969a.949.949,0,0,0,0-1.9.851.851,0,0,0-.2.024.919.919,0,0,0-.893-.782.929.929,0,0,0-.908.948l.173.337.282.346.406.128.323.008.252.376Z" transform="translate(-473.009 -242.899)" fill="#d5e9fa"/>
            <g id="Grupo_8517" data-name="Grupo 8517" transform="translate(0 1.7)">
              <path id="Trazado_6305" data-name="Trazado 6305" d="M463.233,290.61h-3.407v-5.89l1.7-.76,1.7.76Z" transform="translate(-456.301 -261.616)" fill="#69f"/>
              <path id="Trazado_6306" data-name="Trazado 6306" d="M457.532,290.61H454.38v-5.89l1.576-.76,1.576.76Z" transform="translate(-453.89 -261.616)" fill="#69f"/>
              <path id="Trazado_6307" data-name="Trazado 6307" d="M516.115,290.61h-3.152v-5.89l1.576-.76,1.576.76Z" transform="translate(-479.828 -261.616)" fill="#69f"/>
              <path id="Trazado_6308" data-name="Trazado 6308" d="M510.467,290.61h-3.408v-5.89l1.7-.76,1.7.76Z" transform="translate(-477.214 -261.616)" fill="#69f"/>
              <path id="Trazado_6309" data-name="Trazado 6309" d="M507.059,290.217v-6.374l1.7-.822,1.7.822v6.374" transform="translate(-477.214 -261.223)" fill="none" stroke="#004884" stroke-linecap="round" stroke-miterlimit="10" stroke-width="0.304"/>
              <path id="Trazado_6310" data-name="Trazado 6310" d="M513.385,283.844l1.7-.822,1.7.822v6.374h-3.407" transform="translate(-480.015 -261.223)" fill="none" stroke="#004884" stroke-linecap="round" stroke-miterlimit="10" stroke-width="0.304"/>
              <path id="Trazado_6311" data-name="Trazado 6311" d="M456.907,290.217H453.5v-6.374l1.7-.822,1.7.822Z" transform="translate(-453.5 -261.223)" fill="none" stroke="#004884" stroke-linecap="round" stroke-miterlimit="10" stroke-width="0.304"/>
              <path id="Trazado_6312" data-name="Trazado 6312" d="M459.826,295.4" transform="translate(-456.301 -266.406)" fill="none" stroke="#004884" stroke-linecap="round" stroke-miterlimit="10" stroke-width="0.304"/>
              <path id="Trazado_6313" data-name="Trazado 6313" d="M459.826,283.844l1.7-.822,1.7.822" transform="translate(-456.301 -261.223)" fill="none" stroke="#004884" stroke-linecap="round" stroke-miterlimit="10" stroke-width="0.304"/>
              <path id="Trazado_6314" data-name="Trazado 6314" d="M499.889,257.487l-2.53-1.922V250.52h2.53Z" transform="translate(-472.919 -247.616)" fill="#ffab00"/>
              <path id="Trazado_6315" data-name="Trazado 6315" d="M500.649,256.963,497.359,255v-5.148h3.29Z" transform="translate(-472.919 -247.337)" fill="none" stroke="#004884" stroke-linecap="round" stroke-miterlimit="10" stroke-width="0.359"/>
              <path id="Trazado_6316" data-name="Trazado 6316" d="M488.947,259.778v15.935H466.152V258.184l10.927-9.806,11.867,11.4" transform="translate(-459.102 -246.719)" fill="#d5e9fa"/>
              <line id="Línea_716" data-name="Línea 716" x1="17.155" transform="translate(0.118 28.994)" fill="none" stroke="#004884" stroke-linecap="round" stroke-miterlimit="10" stroke-width="0.304"/>
              <g id="Grupo_8516" data-name="Grupo 8516" transform="translate(2.115)">
                <path id="Trazado_6317" data-name="Trazado 6317" d="M484.474,258.119l-2.91-2.606-8.24-7.381-14.461,13.5a.913.913,0,0,1-1.327-.077,1.01,1.01,0,0,1,.074-1.385L473.3,245.524l16.335,14.631a1.01,1.01,0,0,1,.1,1.382.913.913,0,0,1-1.325.105l-2.68-2.4" transform="translate(-457.295 -245.524)" fill="#fff" stroke="#004884" stroke-linecap="round" stroke-miterlimit="10" stroke-width="0.479"/>
              </g>
              <path id="Trazado_6318" data-name="Trazado 6318" d="M482.646,278.577a11.384,11.384,0,0,1-4.21-3.7c-.532-.892-1.223-2.578.124-3.857a2.88,2.88,0,0,1,1.985-.784,2.793,2.793,0,0,1,1.929.754.214.214,0,0,0,.042.027.207.207,0,0,0,.035.023.242.242,0,0,0,.189,0,.238.238,0,0,0,.035-.022.246.246,0,0,0,.042-.027,2.876,2.876,0,0,1,3.915.03c1.347,1.279.656,2.965.131,3.847A11.4,11.4,0,0,1,482.646,278.577Z" transform="translate(-464.25 -255.869)" fill="#69f" stroke="#fff" stroke-miterlimit="10" stroke-width="1"/>
              <line id="Línea_717" data-name="Línea 717" x1="11.676" transform="translate(21.576 28.994)" fill="none" stroke="#004884" stroke-linecap="round" stroke-miterlimit="10" stroke-width="0.304"/>
            </g>
            <path id="Trazado_6319" data-name="Trazado 6319" d="M499.874,243.477a1.025,1.025,0,0,0-.229.027,1.063,1.063,0,0,0-1.032-.9,1.1,1.1,0,0,0,0,2.192,1.026,1.026,0,0,0,.228-.027,1.063,1.063,0,0,0,1.032.9,1.1,1.1,0,0,0,0-2.192Z" transform="translate(-473.009 -242.6)" fill="none" stroke="#004884" stroke-linecap="round" stroke-miterlimit="10" stroke-width="0.479"/>
          </g>
          <g id="Grupo_8519" data-name="Grupo 8519">
            <rect id="Rectángulo_3034" data-name="Rectángulo 3034" width="42.177" height="44" fill="none"/>
          </g>
        </g>
      </g>
      <g id="Grupo_11185" data-name="Grupo 11185" transform="translate(364.252)">
        <g id="Componente_173_2" data-name="Componente 173 – 2" style="isolation: isolate">
          <g id="Rectángulo_2992-3" data-name="Rectángulo 2992" fill="#fff" stroke="#e6effd" stroke-width="1">
            <rect width="335.495" height="100" rx="5" stroke="none"/>
            <rect x="0.5" y="0.5" width="334.495" height="99" rx="4.5" fill="none"/>
          </g>
        </g>
        <text id="Inscripción_en_el_Regístro_Único_Tributario_-_RUT" data-name="Inscripción en el Regístro Único Tributario - RUT" transform="translate(55.596 33)" fill="#004884" font-size="14" font-family="WorkSans-Medium, Work Sans" font-weight="500" text-decoration="underline"><tspan x="0" y="13">Inscripción en el Regístro Único </tspan><tspan x="0" y="35">Tributario - RUT</tspan></text>
        <g id="Grupo_8515" data-name="Grupo 8515" transform="translate(6.71 30)">
          <g id="Grupo_8512" data-name="Grupo 8512" transform="translate(0)">
            <rect id="Rectángulo_3027" data-name="Rectángulo 3027" width="42.177" height="44" fill="none"/>
          </g>
          <g id="Grupo_8514" data-name="Grupo 8514" transform="translate(2.991 7.083)">
            <rect id="Rectángulo_3028" data-name="Rectángulo 3028" width="28.826" height="20.549" rx="3.687" transform="translate(6.188 6.851)" fill="#d5e9fa"/>
            <path id="Trazado_6299" data-name="Trazado 6299" d="M492.891,105.105v-4.29a1.958,1.958,0,0,0-1.915-2H464.833a1.958,1.958,0,0,0-1.916,2v3.938a2.758,2.758,0,0,0,1.7,2.581c4.083,1.621,14.977,4.969,26.589.351A2.757,2.757,0,0,0,492.891,105.105Z" transform="translate(-456.804 -92.375)" fill="none" stroke="#004884" stroke-linecap="round" stroke-miterlimit="10" stroke-width="1"/>
            <rect id="Rectángulo_3029" data-name="Rectángulo 3029" width="29.974" height="21.368" rx="3.834" transform="translate(6.113 6.442)" fill="none" stroke="#004884" stroke-linecap="round" stroke-miterlimit="10" stroke-width="1"/>
            <rect id="Rectángulo_3030" data-name="Rectángulo 3030" width="12.489" height="17.199" rx="1.702" transform="translate(0.999 11.021)" fill="#fff"/>
            <path id="Trazado_6300" data-name="Trazado 6300" d="M491.606,95.866V91.951a1.369,1.369,0,0,0-1.43-1.3H476.55a1.368,1.368,0,0,0-1.43,1.3v3.915Z" transform="translate(-462.016 -89.091)" fill="none" stroke="#69f" stroke-miterlimit="10" stroke-width="1"/>
            <rect id="Rectángulo_3031" data-name="Rectángulo 3031" width="9.991" height="3.127" transform="translate(16.351 0)" fill="#ffab00"/>
            <rect id="Rectángulo_3032" data-name="Rectángulo 3032" width="6.494" height="4.691" rx="1.582" transform="translate(17.985 15.19)" fill="#ffab00"/>
            <rect id="Rectángulo_3033" data-name="Rectángulo 3033" width="12.489" height="17.199" rx="1.702" transform="translate(0 12.063)" fill="#69f" stroke="#004884" stroke-miterlimit="10" stroke-width="1"/>
            <path id="Trazado_6301" data-name="Trazado 6301" d="M471,122.611" transform="translate(-460.255 -101.949)" fill="none" stroke="#fff" stroke-linecap="round" stroke-miterlimit="10" stroke-width="0.75"/>
            <path id="Trazado_6302" data-name="Trazado 6302" d="M455.3,122.611" transform="translate(-453.55 -101.949)" fill="none" stroke="#fff" stroke-linecap="round" stroke-miterlimit="10" stroke-width="0.75"/>
            <line id="Línea_714" data-name="Línea 714" x2="8.992" transform="translate(1.749 22.747)" fill="none" stroke="#fff" stroke-linecap="round" stroke-miterlimit="10" stroke-width="0.75"/>
            <line id="Línea_715" data-name="Línea 715" x2="8.992" transform="translate(1.749 24.832)" fill="none" stroke="#fff" stroke-linecap="round" stroke-miterlimit="10" stroke-width="0.75"/>
            <g id="Grupo_8513" data-name="Grupo 8513" transform="translate(4.37 15.125)">
              <ellipse id="Elipse_192" data-name="Elipse 192" cx="0.953" cy="0.994" rx="0.953" ry="0.994" transform="translate(0.897)" fill="#d5e9fa"/>
              <path id="Trazado_6303" data-name="Trazado 6303" d="M463.685,119h0a.775.775,0,0,0-.758-.791h-2.293a.775.775,0,0,0-.758.791h0a1.084,1.084,0,0,0,1.06,1.106h1.69A1.083,1.083,0,0,0,463.685,119Z" transform="translate(-459.875 -115.302)" fill="#d5e9fa"/>
            </g>
          </g>
        </g>
      </g>
      <g id="Grupo_11188" data-name="Grupo 11188" transform="translate(364.252 110)">
        <g id="Componente_173_5" data-name="Componente 173 – 5" style="isolation: isolate">
          <g id="Rectángulo_2992-4" data-name="Rectángulo 2992" fill="#fff" stroke="#e6effd" stroke-width="1">
            <rect width="335.495" height="100" rx="5" stroke="none"/>
            <rect x="0.5" y="0.5" width="334.495" height="99" rx="4.5" fill="none"/>
          </g>
        </g>
        <text id="Pasaporte_Electrónico" data-name="Pasaporte Electrónico" transform="translate(55.596 44)" fill="#004884" font-size="14" font-family="WorkSans-Medium, Work Sans" font-weight="500" text-decoration="underline"><tspan x="0" y="13">Pasaporte Electrónico</tspan></text>
        <g id="Grupo_8533" data-name="Grupo 8533" transform="translate(4.793 28)">
          <g id="Grupo_8532" data-name="Grupo 8532" transform="translate(9.444 5.912)">
            <g id="Grupo_8531" data-name="Grupo 8531" transform="translate(1.529)">
              <rect id="Rectángulo_3044" data-name="Rectángulo 3044" width="20.25" height="29.784" rx="2.158" transform="translate(5.341)" fill="#ffab00"/>
              <rect id="Rectángulo_3045" data-name="Rectángulo 3045" width="20.25" height="29.784" rx="2.158" transform="translate(0 4.643)" fill="#d5e9fa"/>
              <line id="Línea_730" data-name="Línea 730" x2="12.239" transform="translate(4.784 27.114)" fill="none" stroke="#004884" stroke-linecap="round" stroke-miterlimit="10" stroke-width="0.475"/>
              <line id="Línea_731" data-name="Línea 731" x2="12.239" transform="translate(4.784 29.203)" fill="none" stroke="#004884" stroke-linecap="round" stroke-miterlimit="10" stroke-width="0.475"/>
              <path id="Trazado_6325" data-name="Trazado 6325" d="M828.591,110.653l-2.628-2.083,1.892-.768.734.488a.967.967,0,0,0,.89.1l2.6-1.018a.219.219,0,0,0,.077-.35l-1.991-2.177,1.261-.439,2.755,1.848a.455.455,0,0,0,.4.055l2.87-.962a.875.875,0,0,1,1.089.389h0a.948.948,0,0,1-.464,1.356Z" transform="translate(-822.203 -91.996)" fill="#69f"/>
            </g>
            <path id="Trazado_6326" data-name="Trazado 6326" d="M817.2,92.278a1.548,1.548,0,0,0-.536,1.181V121.75a1.5,1.5,0,0,0,1.462,1.525h18.857a1.5,1.5,0,0,0,1.462-1.525" transform="translate(-816.668 -87.068)" fill="none" stroke="#004884" stroke-linecap="round" stroke-miterlimit="10" stroke-width="0.716"/>
          </g>
          <g id="Group_8531" data-name="Group 8531" transform="translate(0)">
            <g id="Group_8530" data-name="Group 8530">
              <g id="Group_8529" data-name="Group 8529">
                <rect id="Rectangle_3043" data-name="Rectangle 3043" width="46.011" height="48" fill="none"/>
              </g>
            </g>
          </g>
        </g>
      </g>
      <g id="Grupo_11186" data-name="Grupo 11186" transform="translate(728.505)">
        <g id="Componente_173_3" data-name="Componente 173 – 3" transform="translate(0)" style="isolation: isolate">
          <g id="Rectángulo_2992-5" data-name="Rectángulo 2992" fill="#fff" stroke="#e6effd" stroke-width="1">
            <rect width="335.495" height="100" rx="5" stroke="none"/>
            <rect x="0.5" y="0.5" width="334.495" height="99" rx="4.5" fill="none"/>
          </g>
        </g>
        <text id="Actualización_en_el_Regístro_Único_Tributario_-_RUT" data-name="Actualización en el Regístro Único Tributario - RUT" transform="translate(55.596 33)" fill="#004884" font-size="14" font-family="WorkSans-Medium, Work Sans" font-weight="500" text-decoration="underline"><tspan x="0" y="13">Actualización en el Regístro Único </tspan><tspan x="0" y="35">Tributario - RUT</tspan></text>
        <g id="Grupo_8515-2" data-name="Grupo 8515" transform="translate(6.71 30)">
          <g id="Grupo_8512-2" data-name="Grupo 8512" transform="translate(0)">
            <rect id="Rectángulo_3027-2" data-name="Rectángulo 3027" width="42.177" height="44" fill="none"/>
          </g>
          <g id="Grupo_8514-2" data-name="Grupo 8514" transform="translate(2.991 7.083)">
            <rect id="Rectángulo_3028-2" data-name="Rectángulo 3028" width="28.826" height="20.549" rx="3.687" transform="translate(6.188 6.851)" fill="#d5e9fa"/>
            <path id="Trazado_6299-2" data-name="Trazado 6299" d="M492.891,105.105v-4.29a1.958,1.958,0,0,0-1.915-2H464.833a1.958,1.958,0,0,0-1.916,2v3.938a2.758,2.758,0,0,0,1.7,2.581c4.083,1.621,14.977,4.969,26.589.351A2.757,2.757,0,0,0,492.891,105.105Z" transform="translate(-456.804 -92.375)" fill="none" stroke="#004884" stroke-linecap="round" stroke-miterlimit="10" stroke-width="1"/>
            <rect id="Rectángulo_3029-2" data-name="Rectángulo 3029" width="29.974" height="21.368" rx="3.834" transform="translate(6.113 6.442)" fill="none" stroke="#004884" stroke-linecap="round" stroke-miterlimit="10" stroke-width="1"/>
            <rect id="Rectángulo_3030-2" data-name="Rectángulo 3030" width="12.489" height="17.199" rx="1.702" transform="translate(0.999 11.021)" fill="#fff"/>
            <path id="Trazado_6300-2" data-name="Trazado 6300" d="M491.606,95.866V91.951a1.369,1.369,0,0,0-1.43-1.3H476.55a1.368,1.368,0,0,0-1.43,1.3v3.915Z" transform="translate(-462.016 -89.091)" fill="none" stroke="#69f" stroke-miterlimit="10" stroke-width="1"/>
            <rect id="Rectángulo_3031-2" data-name="Rectángulo 3031" width="9.991" height="3.127" transform="translate(16.351 0)" fill="#ffab00"/>
            <rect id="Rectángulo_3032-2" data-name="Rectángulo 3032" width="6.494" height="4.691" rx="1.582" transform="translate(17.985 15.19)" fill="#ffab00"/>
            <rect id="Rectángulo_3033-2" data-name="Rectángulo 3033" width="12.489" height="17.199" rx="1.702" transform="translate(0 12.063)" fill="#69f" stroke="#004884" stroke-miterlimit="10" stroke-width="1"/>
            <path id="Trazado_6301-2" data-name="Trazado 6301" d="M471,122.611" transform="translate(-460.255 -101.949)" fill="none" stroke="#fff" stroke-linecap="round" stroke-miterlimit="10" stroke-width="0.75"/>
            <path id="Trazado_6302-2" data-name="Trazado 6302" d="M455.3,122.611" transform="translate(-453.55 -101.949)" fill="none" stroke="#fff" stroke-linecap="round" stroke-miterlimit="10" stroke-width="0.75"/>
            <line id="Línea_714-2" data-name="Línea 714" x2="8.992" transform="translate(1.749 22.747)" fill="none" stroke="#fff" stroke-linecap="round" stroke-miterlimit="10" stroke-width="0.75"/>
            <line id="Línea_715-2" data-name="Línea 715" x2="8.992" transform="translate(1.749 24.832)" fill="none" stroke="#fff" stroke-linecap="round" stroke-miterlimit="10" stroke-width="0.75"/>
            <g id="Grupo_8513-2" data-name="Grupo 8513" transform="translate(4.37 15.125)">
              <ellipse id="Elipse_192-2" data-name="Elipse 192" cx="0.953" cy="0.994" rx="0.953" ry="0.994" transform="translate(0.897)" fill="#d5e9fa"/>
              <path id="Trazado_6303-2" data-name="Trazado 6303" d="M463.685,119h0a.775.775,0,0,0-.758-.791h-2.293a.775.775,0,0,0-.758.791h0a1.084,1.084,0,0,0,1.06,1.106h1.69A1.083,1.083,0,0,0,463.685,119Z" transform="translate(-459.875 -115.302)" fill="#d5e9fa"/>
            </g>
          </g>
        </g>
      </g>
      <g id="Grupo_11191" data-name="Grupo 11191" transform="translate(1092.757)">
        <g id="Componente_173_8" data-name="Componente 173 – 8" transform="translate(0)" style="isolation: isolate">
          <g id="Rectángulo_2992-6" data-name="Rectángulo 2992" fill="#fff" stroke="#e6effd" stroke-width="1">
            <rect width="335.495" height="100" rx="5" stroke="none"/>
            <rect x="0.5" y="0.5" width="334.495" height="99" rx="4.5" fill="none"/>
          </g>
        </g>
        <text id="Certificación_de_necesidades_de_recurso_humano_para_presentar_ante_el_Ministerio_de_Relaciones_Exteriores" data-name="Certificación de necesidades de recurso humano para presentar ante el Ministerio de Relaciones Exteriores" transform="translate(55.596 20)" fill="#004884" font-size="14" font-family="WorkSans-Medium, Work Sans" font-weight="500" text-decoration="underline"><tspan x="0" y="13">Certificación de necesidades de </tspan><tspan x="0" y="35">recurso humano para presentar ante el </tspan><tspan x="0" y="57">Ministerio de Relaciones Exteriores</tspan></text>
        <g id="Grupo_11192" data-name="Grupo 11192" transform="translate(4.793 28)">
          <g id="Grupo_8532-2" data-name="Grupo 8532" transform="translate(9.444 5.912)">
            <g id="Grupo_8531-2" data-name="Grupo 8531" transform="translate(1.529)">
              <rect id="Rectángulo_3044-2" data-name="Rectángulo 3044" width="20.25" height="29.784" rx="2.158" transform="translate(5.341)" fill="#ffab00"/>
              <rect id="Rectángulo_3045-2" data-name="Rectángulo 3045" width="20.25" height="29.784" rx="2.158" transform="translate(0 4.643)" fill="#d5e9fa"/>
              <line id="Línea_730-2" data-name="Línea 730" x2="12.239" transform="translate(4.784 27.114)" fill="none" stroke="#004884" stroke-linecap="round" stroke-miterlimit="10" stroke-width="0.475"/>
              <line id="Línea_731-2" data-name="Línea 731" x2="12.239" transform="translate(4.784 29.203)" fill="none" stroke="#004884" stroke-linecap="round" stroke-miterlimit="10" stroke-width="0.475"/>
              <path id="Trazado_6325-2" data-name="Trazado 6325" d="M828.591,110.653l-2.628-2.083,1.892-.768.734.488a.967.967,0,0,0,.89.1l2.6-1.018a.219.219,0,0,0,.077-.35l-1.991-2.177,1.261-.439,2.755,1.848a.455.455,0,0,0,.4.055l2.87-.962a.875.875,0,0,1,1.089.389h0a.948.948,0,0,1-.464,1.356Z" transform="translate(-822.203 -91.996)" fill="#69f"/>
            </g>
            <path id="Trazado_6326-2" data-name="Trazado 6326" d="M817.2,92.278a1.548,1.548,0,0,0-.536,1.181V121.75a1.5,1.5,0,0,0,1.462,1.525h18.857a1.5,1.5,0,0,0,1.462-1.525" transform="translate(-816.668 -87.068)" fill="none" stroke="#004884" stroke-linecap="round" stroke-miterlimit="10" stroke-width="0.716"/>
          </g>
          <g id="Group_8531-2" data-name="Group 8531">
            <g id="Group_8530-2" data-name="Group 8530">
              <g id="Group_8529-2" data-name="Group 8529">
                <rect id="Rectangle_3043-2" data-name="Rectangle 3043" width="46.011" height="48" fill="none"/>
              </g>
            </g>
          </g>
        </g>
      </g>
      <g id="Grupo_11189" data-name="Grupo 11189" transform="translate(728.505 110)">
        <g id="Componente_173_6" data-name="Componente 173 – 6" transform="translate(0)" style="isolation: isolate">
          <g id="Rectángulo_2992-7" data-name="Rectángulo 2992" fill="#fff" stroke="#e6effd" stroke-width="1">
            <rect width="335.495" height="100" rx="5" stroke="none"/>
            <rect x="0.5" y="0.5" width="334.495" height="99" rx="4.5" fill="none"/>
          </g>
        </g>
        <text id="Convalidación_de_títulos_de_estudios_de_posgrado_obtenidos_en_el_exterior" data-name="Convalidación de títulos de estudios de posgrado obtenidos en el exterior" transform="translate(55.596 33)" fill="#004884" font-size="14" font-family="WorkSans-Medium, Work Sans" font-weight="500" text-decoration="underline"><tspan x="0" y="13">Convalidación de títulos de estudios </tspan><tspan x="0" y="35">de posgrado obtenidos en el exterior</tspan></text>
        <g id="Grupo_8748" data-name="Grupo 8748" transform="translate(6.71 30)">
          <rect id="Rectángulo_2981" data-name="Rectángulo 2981" width="42.177" height="44" fill="none"/>
          <g id="Grupo_8324" data-name="Grupo 8324" transform="translate(6.887 4.49)">
            <g id="Grupo_8323" data-name="Grupo 8323" transform="translate(0 0)">
              <g id="Grupo_8322" data-name="Grupo 8322">
                <path id="Trazado_6269" data-name="Trazado 6269" d="M934.958,199.414a1.339,1.339,0,0,1,1.31,1.366v25.333a1.339,1.339,0,0,1-1.31,1.366H918.073a1.339,1.339,0,0,1-1.31-1.366" transform="translate(-907.683 -192.397)" fill="none" stroke="#004884" stroke-linecap="round" stroke-miterlimit="10" stroke-width="1"/>
                <g id="Grupo_8320" data-name="Grupo 8320" transform="translate(7.847 7.017)">
                  <rect id="Rectángulo_2982" data-name="Rectángulo 2982" width="18.832" height="25.961" rx="1.947" fill="#d5e9fa"/>
                  <line id="Línea_707" data-name="Línea 707" x2="12.106" transform="translate(3.363 12.391)" fill="none" stroke="#fff" stroke-linecap="round" stroke-miterlimit="10" stroke-width="1"/>
                  <line id="Línea_708" data-name="Línea 708" x2="12.106" transform="translate(3.363 15.198)" fill="none" stroke="#fff" stroke-linecap="round" stroke-miterlimit="10" stroke-width="1"/>
                  <line id="Línea_709" data-name="Línea 709" x2="12.106" transform="translate(3.363 18.005)" fill="none" stroke="#fff" stroke-linecap="round" stroke-miterlimit="10" stroke-width="1"/>
                  <line id="Línea_710" data-name="Línea 710" x2="8.57" transform="translate(6.899 8.883)" fill="none" stroke="#004884" stroke-linecap="round" stroke-linejoin="round" stroke-width="1"/>
                </g>
                <g id="Grupo_8321" data-name="Grupo 8321">
                  <path id="Trazado_6270" data-name="Trazado 6270" d="M923.353,195.262a41.565,41.565,0,0,0-5.825,2.889,42.334,42.334,0,0,0-5.289,4.443l-2.869-4.732a11.788,11.788,0,0,1,11.114-7.331Z" transform="translate(-903.887 -188.022)" fill="#69f"/>
                  <path id="Trazado_6271" data-name="Trazado 6271" d="M910.629,197.5c.294-.128.373-.145.356-.116.367-.278.7-.631,1.074-.893.5-.352,1.043-.63,1.564-.937.542-.32,1.091-.627,1.641-.93l3.623-6.775-12.41.166-5.061,10.156,8.168.081A3.18,3.18,0,0,1,910.629,197.5Z" transform="translate(-899.801 -186.701)" fill="#69f"/>
                  <path id="Trazado_6272" data-name="Trazado 6272" d="M922.631,195.262a46.741,46.741,0,0,0-6.159,3.108,47.556,47.556,0,0,0-5.64,4.674l-2.868-4.732a12.144,12.144,0,0,1,4.85-5.666,12.3,12.3,0,0,1,6.948-2.116Z" transform="translate(-903.165 -188.022)" fill="none" stroke="#004884" stroke-linecap="round" stroke-linejoin="round" stroke-width="1"/>
                  <path id="Trazado_6273" data-name="Trazado 6273" d="M916.938,187.676l1-2.088-13.788.351L898.1,197.867h4.035" transform="translate(-898.098 -185.588)" fill="none" stroke="#004884" stroke-linecap="round" stroke-linejoin="round" stroke-width="1"/>
                </g>
              </g>
              <ellipse id="Elipse_190" data-name="Elipse 190" cx="1.703" cy="1.776" rx="1.703" ry="1.776" transform="translate(2.395 14.21)" fill="#ffab00"/>
            </g>
            <path id="Trazado_6274" data-name="Trazado 6274" d="M940.957,189.783,942.263,191l-1.665.57-1.665.57.36-1.789.36-1.789Z" transform="translate(-919.068 -187.054)" fill="none" stroke="#ffab00" stroke-linecap="round" stroke-linejoin="round" stroke-width="1"/>
          </g>
        </g>
      </g>
      <g id="Grupo_11194" data-name="Grupo 11194" transform="translate(1092.757 110)">
        <g id="Componente_173_9" data-name="Componente 173 – 9" transform="translate(0)" style="isolation: isolate">
          <g id="Rectángulo_2992-8" data-name="Rectángulo 2992" fill="#fff" stroke="#e6effd" stroke-width="1">
            <rect width="335.495" height="100" rx="5" stroke="none"/>
            <rect x="0.5" y="0.5" width="334.495" height="99" rx="4.5" fill="none"/>
          </g>
        </g>
        <text id="Convalidación_de_títulos_de_estudios_de_posgrado_obtenidos_en_el_exterior-2" data-name="Convalidación de títulos de estudios de posgrado obtenidos en el exterior" transform="translate(55.596 33)" fill="#004884" font-size="14" font-family="WorkSans-Medium, Work Sans" font-weight="500" text-decoration="underline"><tspan x="0" y="13">Convalidación de títulos de estudios </tspan><tspan x="0" y="35">de posgrado obtenidos en el exterior</tspan></text>
        <g id="Grupo_8748-2" data-name="Grupo 8748" transform="translate(6.71 30)">
          <rect id="Rectángulo_2981-2" data-name="Rectángulo 2981" width="42.177" height="44" fill="none"/>
          <g id="Grupo_8324-2" data-name="Grupo 8324" transform="translate(6.887 4.49)">
            <g id="Grupo_8323-2" data-name="Grupo 8323" transform="translate(0 0)">
              <g id="Grupo_8322-2" data-name="Grupo 8322">
                <path id="Trazado_6269-2" data-name="Trazado 6269" d="M934.958,199.414a1.339,1.339,0,0,1,1.31,1.366v25.333a1.339,1.339,0,0,1-1.31,1.366H918.073a1.339,1.339,0,0,1-1.31-1.366" transform="translate(-907.683 -192.397)" fill="none" stroke="#004884" stroke-linecap="round" stroke-miterlimit="10" stroke-width="1"/>
                <g id="Grupo_8320-2" data-name="Grupo 8320" transform="translate(7.847 7.017)">
                  <rect id="Rectángulo_2982-2" data-name="Rectángulo 2982" width="18.832" height="25.961" rx="1.947" fill="#d5e9fa"/>
                  <line id="Línea_707-2" data-name="Línea 707" x2="12.106" transform="translate(3.363 12.391)" fill="none" stroke="#fff" stroke-linecap="round" stroke-miterlimit="10" stroke-width="1"/>
                  <line id="Línea_708-2" data-name="Línea 708" x2="12.106" transform="translate(3.363 15.198)" fill="none" stroke="#fff" stroke-linecap="round" stroke-miterlimit="10" stroke-width="1"/>
                  <line id="Línea_709-2" data-name="Línea 709" x2="12.106" transform="translate(3.363 18.005)" fill="none" stroke="#fff" stroke-linecap="round" stroke-miterlimit="10" stroke-width="1"/>
                  <line id="Línea_710-2" data-name="Línea 710" x2="8.57" transform="translate(6.899 8.883)" fill="none" stroke="#004884" stroke-linecap="round" stroke-linejoin="round" stroke-width="1"/>
                </g>
                <g id="Grupo_8321-2" data-name="Grupo 8321">
                  <path id="Trazado_6270-2" data-name="Trazado 6270" d="M923.353,195.262a41.565,41.565,0,0,0-5.825,2.889,42.334,42.334,0,0,0-5.289,4.443l-2.869-4.732a11.788,11.788,0,0,1,11.114-7.331Z" transform="translate(-903.887 -188.022)" fill="#69f"/>
                  <path id="Trazado_6271-2" data-name="Trazado 6271" d="M910.629,197.5c.294-.128.373-.145.356-.116.367-.278.7-.631,1.074-.893.5-.352,1.043-.63,1.564-.937.542-.32,1.091-.627,1.641-.93l3.623-6.775-12.41.166-5.061,10.156,8.168.081A3.18,3.18,0,0,1,910.629,197.5Z" transform="translate(-899.801 -186.701)" fill="#69f"/>
                  <path id="Trazado_6272-2" data-name="Trazado 6272" d="M922.631,195.262a46.741,46.741,0,0,0-6.159,3.108,47.556,47.556,0,0,0-5.64,4.674l-2.868-4.732a12.144,12.144,0,0,1,4.85-5.666,12.3,12.3,0,0,1,6.948-2.116Z" transform="translate(-903.165 -188.022)" fill="none" stroke="#004884" stroke-linecap="round" stroke-linejoin="round" stroke-width="1"/>
                  <path id="Trazado_6273-2" data-name="Trazado 6273" d="M916.938,187.676l1-2.088-13.788.351L898.1,197.867h4.035" transform="translate(-898.098 -185.588)" fill="none" stroke="#004884" stroke-linecap="round" stroke-linejoin="round" stroke-width="1"/>
                </g>
              </g>
              <ellipse id="Elipse_190-2" data-name="Elipse 190" cx="1.703" cy="1.776" rx="1.703" ry="1.776" transform="translate(2.395 14.21)" fill="#ffab00"/>
            </g>
            <path id="Trazado_6274-2" data-name="Trazado 6274" d="M940.957,189.783,942.263,191l-1.665.57-1.665.57.36-1.789.36-1.789Z" transform="translate(-919.068 -187.054)" fill="none" stroke="#ffab00" stroke-linecap="round" stroke-linejoin="round" stroke-width="1"/>
          </g>
        </g>
      </g>
    </g>
  </g>
</svg>
