<svg xmlns="http://www.w3.org/2000/svg" width="15.784" height="15.783" viewBox="0 0 15.784 15.783">
  <path id="Trazado_3682" data-name="Trazado 3682" d="M-542.108,10A7.892,7.892,0,0,0-550,17.892a7.892,7.892,0,0,0,7.892,7.892,7.892,7.892,0,0,0,7.892-7.892A7.892,7.892,0,0,0-542.108,10Zm.138,5.563a.226.226,0,0,1,.26-.183,2.569,2.569,0,0,1,1.391.721,2.57,2.57,0,0,1,.721,1.391.225.225,0,0,1-.185.26.288.288,0,0,1-.038,0,.223.223,0,0,1-.221-.187,2.123,2.123,0,0,0-.6-1.149,2.112,2.112,0,0,0-1.149-.6A.223.223,0,0,1-541.971,15.563ZM-538.9,20.9c-.072.075-.145.146-.217.215a3.791,3.791,0,0,0-.292.3s0,.005-.007.008a1.255,1.255,0,0,1-.961.413c-.033,0-.07,0-.1,0a4.067,4.067,0,0,1-1.466-.433,7.84,7.84,0,0,1-2.61-2.044,7.172,7.172,0,0,1-1.274-2.125A2.917,2.917,0,0,1-546.042,16a1.218,1.218,0,0,1,.361-.774l.566-.571,0,0a.816.816,0,0,1,.566-.245.789.789,0,0,1,.558.245c.108.1.213.207.313.31.05.053.1.107.155.158l.455.455a.764.764,0,0,1,0,1.153l-.14.142c-.123.125-.25.255-.386.38a3.372,3.372,0,0,0,.45.71,5.715,5.715,0,0,0,1.371,1.249c.048.03.1.058.165.088l.128.067.526-.525a.8.8,0,0,1,.57-.256.776.776,0,0,1,.563.258l.914.918a.8.8,0,0,1,.257.571A.831.831,0,0,1-538.9,20.9Zm.543-3.216a.284.284,0,0,1-.038,0,.223.223,0,0,1-.222-.187,3.774,3.774,0,0,0-1.061-2.047,3.784,3.784,0,0,0-2.047-1.061.226.226,0,0,1-.185-.26.224.224,0,0,1,.258-.183,4.226,4.226,0,0,1,2.29,1.188,4.226,4.226,0,0,1,1.188,2.29A.221.221,0,0,1-538.355,17.684Z" transform="translate(550 -10)" fill="#004884"/>
</svg>
