<svg xmlns="http://www.w3.org/2000/svg" width="24" height="24" viewBox="0 0 24 24">
  <g id="Grupo_7744" data-name="Grupo 7744" transform="translate(-78 -1643)">
    <circle id="Elipse_183" data-name="Elipse 183" cx="12" cy="12" r="12" transform="translate(78 1643)" fill="#fff"/>
    <path id="Trazado_5880" data-name="Trazado 5880" d="M-167.589,359.46a6.616,6.616,0,0,1-2.085.8,3.272,3.272,0,0,0-2.4-1.037,3.282,3.282,0,0,0-3.282,3.281,3.3,3.3,0,0,0,.085.748,9.32,9.32,0,0,1-6.764-3.429,3.257,3.257,0,0,0-.444,1.65,3.24,3.24,0,0,0,1.415,2.731,3.757,3.757,0,0,1-1.531-.412v.041a3.325,3.325,0,0,0,2.677,3.218,3.154,3.154,0,0,1-.842.115,3.052,3.052,0,0,1-.607-.061,3.291,3.291,0,0,0,3.071,2.279,6.577,6.577,0,0,1-4.073,1.4,7.038,7.038,0,0,1-.782-.045,9.283,9.283,0,0,0,5.031,1.476,9.273,9.273,0,0,0,9.338-9.337l-.011-.425a6.553,6.553,0,0,0,1.642-1.7,6.554,6.554,0,0,1-1.884.517A3.3,3.3,0,0,0-167.589,359.46Z" transform="translate(265.147 1289.78)" fill="#36c"/>
  </g>
</svg>
